<svg xmlns="http://www.w3.org/2000/svg" width="546.106" height="297.802" viewBox="0 0 546.106 297.802">
    <defs>
        <style>
            .cls-1{fill:#e6e6e6}.cls-2{fill:#3f3d56}.cls-3{fill:#fff}.cls-4{fill:#6c63ff}.cls-5{fill:#ffb8b8}.cls-6{fill:#2f2e41}
        </style>
    </defs>
    <g id="undraw_next_tasks_iubr">
        <ellipse id="Ellipse_19" cx="273.053" cy="6.342" class="cls-1" data-name="Ellipse 19" rx="273.053" ry="6.342" transform="translate(0 285.117)"/>
        <path id="Path_1" d="M781.029 339.109H647.114v-.7a2.059 2.059 0 0 0-2.059-2.059h-56.6a2.059 2.059 0 0 0-2.059 2.059v.7H451.925a9.058 9.058 0 0 0-9.058 9.058v183.371a9.058 9.058 0 0 0 9.058 9.058h329.1a9.058 9.058 0 0 0 9.058-9.058V348.167a9.058 9.058 0 0 0-9.054-9.058z" class="cls-2" data-name="Path 1" transform="translate(-266.736 -257.55)"/>
        <path id="Path_2" d="M468.589 366a1.046 1.046 0 0 0-1.034 1.055v177.452a1.046 1.046 0 0 0 1.034 1.055h314.7a1.046 1.046 0 0 0 1.034-1.055V367.055a1.046 1.046 0 0 0-1.038-1.055z" class="cls-3" data-name="Path 2" transform="translate(-276.197 -268.912)"/>
        <circle id="Ellipse_20" cx="3.312" cy="3.312" r="3.312" class="cls-4" data-name="Ellipse 20" transform="translate(346.152 85.975)"/>
        <path id="Path_3" d="M785.659 645.22h-31.516v-3.255c0-.179-.2-.324-.45-.324h-10.806c-.249 0-.45.145-.45.324v3.255h-6.753v-3.255c0-.179-.2-.324-.45-.324h-10.806c-.249 0-.45.145-.45.324v3.255h-6.753v-3.255c0-.179-.2-.324-.45-.324h-10.807c-.249 0-.45.145-.45.324v3.255h-6.753v-3.255c0-.179-.2-.324-.45-.324h-10.806c-.249 0-.45.145-.45.324v3.255h-6.753v-3.255c0-.179-.2-.324-.45-.324H669.05c-.249 0-.45.145-.45.324v3.255h-6.753v-3.255c0-.179-.2-.324-.45-.324H650.59c-.249 0-.45.145-.45.324v3.255h-6.753v-3.255c0-.179-.2-.324-.45-.324h-84.644c-.249 0-.45.145-.45.324v3.255h-6.753v-3.255c0-.179-.2-.324-.45-.324h-10.806c-.249 0-.45.145-.45.324v3.255h-6.754v-3.255c0-.179-.2-.324-.45-.324h-10.805c-.249 0-.45.145-.45.324v3.255h-6.753v-3.255c0-.179-.2-.324-.45-.324h-10.807c-.249 0-.45.145-.45.324v3.255h-6.753v-3.255c0-.179-.2-.324-.45-.324h-10.806c-.249 0-.45.145-.45.324v3.255h-6.753v-3.255c0-.179-.2-.324-.45-.324H466c-.249 0-.45.145-.45.324v3.255h-6.753v-3.255c0-.179-.2-.324-.45-.324h-10.81c-.249 0-.45.145-.45.324v3.255h-20.711c-5.968 0-10.806 3.478-10.806 7.768v3.512c0 4.29 4.838 7.768 10.806 7.768h359.283c5.968 0 10.806-3.478 10.806-7.768v-3.512c-.001-4.288-4.838-7.768-10.806-7.768z" class="cls-2" data-name="Path 3" transform="translate(-256.277 -374.532)"/>
        <rect id="Rectangle_23" width="119.384" height="114.99" class="cls-1" data-name="Rectangle 23" rx="3.562" transform="translate(353.75 131.899)"/>
        <path id="Path_4" d="M326.393 254.187a74.055 74.055 0 0 1-.857 15.431s-6 13.717.857 19.718 19.718-18 19.718-18c-.89-5.326-1.4-10.333 0-13.717z" class="cls-5" data-name="Path 4" transform="translate(-220.847 -226.068)"/>
        <path id="Path_5" d="M343.014 526.6v18.86s-2.572 35.149 0 43.722l-.857 16.289h9.43l2.572-19.718s7.716-24.861 5.144-40.292l1.715-18.86z" class="cls-5" data-name="Path 5" transform="translate(-228.037 -330.45)"/>
        <path id="Path_6" d="M310.3 526.6v18.86s2.572 35.149 0 43.722l.857 16.289h-9.43l-2.572-19.718s-7.716-24.861-5.144-40.292L292.3 526.6z" class="cls-5" data-name="Path 6" transform="translate(-209.042 -330.45)"/>
        <path id="Path_7" d="M284.248 410.87s-5.144 32.577-1.715 51.437 3.429 24.861 3.429 24.861l21.432-.857 6-35.149 5.144 36.006 25.719-4.286s0-27.433.857-33.434.857-40.293.857-40.293z" class="cls-6" data-name="Path 7" transform="translate(-204.848 -285.448)"/>
        <path id="Path_8" d="M351.6 652.807s-9.43-6-13.717 0v10.287s-3.429 7.716 8.573 6 7.716-7.716 7.716-7.716z" class="cls-6" data-name="Path 8" transform="translate(-226.335 -377.789)"/>
        <path id="Path_9" d="M302.748 652.807s9.43-6 13.717 0v10.287s3.429 7.716-8.573 6-7.716-7.716-7.716-7.716z" class="cls-6" data-name="Path 9" transform="translate(-211.775 -377.789)"/>
        <circle id="Ellipse_21" cx="13.717" cy="13.717" r="13.717" class="cls-5" data-name="Ellipse 21" transform="translate(102.975 9.259)"/>
        <path id="Path_10" d="M324.526 290.043l-5.9-13.875-6.105 2.73-7.716 44.579.857 42.864s39.435-1.715 44.579.857-6-84.014-6-84.014l-5.144-6.416z" class="cls-4" data-name="Path 10" transform="translate(-213.835 -234.49)"/>
        <path id="Path_11" d="M309.619 268.086s-13.037 3.429-13.037 8.573c0 0-12.859 2.572-12.859 5.144s-.857 67.726-.857 67.726-7.716 14.571-1.715 26.571l-.857 6.858 17.146 1.715 12-105.446z" class="cls-6" data-name="Path 11" transform="translate(-203.895 -231.393)"/>
        <path id="Path_12" d="M358.724 268.086s13.037 3.429 13.037 8.573c0 0 12.859 2.572 12.859 5.144s.857 67.726.857 67.726 7.716 14.574 1.715 26.576l.857 6.858-17.149 1.714-12-105.446z" class="cls-6" data-name="Path 12" transform="translate(-234.495 -231.393)"/>
        <path id="Path_13" d="M349.359 213.572s.857-3.429-3.429-1.715c0 0-5.144-6-10.287-1.715 0 0-10.287-1.715-10.287 6.858s-.485 11.4-.485 11.4 3.057-7.974 9.058-7.117c3.667.524 5.734.087 6.786-.331a5.146 5.146 0 0 1 3.592-.17 5.589 5.589 0 0 1 3.338 3.074 25.763 25.763 0 0 0 1.858 3.515 21.764 21.764 0 0 1 2.413 4.8l1.729-10.031s.857-5.144-1.715-6.858c0 .004.858-2.567-2.571-1.71z" class="cls-6" data-name="Path 13" transform="translate(-221.522 -208.599)"/>
        <path id="Rectangle_24" d="M0 0h230.869v75.212H0z" class="cls-4" data-name="Rectangle 24" transform="translate(157.444 151.078)"/>
        <path id="Path_14" d="M259.984 435.03s-5.144 19.718 2.572 18 6-18.86 6-18.86z" class="cls-5" data-name="Path 14" transform="translate(-196.016 -295.034)"/>
        <path id="Path_15" d="M420.993 435.03s5.144 19.718-2.572 18-6-18.86-6-18.86z" class="cls-5" data-name="Path 15" transform="translate(-255.008 -295.034)"/>
        <path id="Path_16" d="M279.332 289.179l-2.366-1.842s-2.777.128-3.635 1.842-14.574 44.579-14.574 44.579-4.286 22.289-1.715 36.006l.857 10.287h12l-.857-16.288 8.573-32.577z" class="cls-6" data-name="Path 16" transform="translate(-195.218 -238.77)"/>
        <path id="Path_17" d="M393.758 289.179l2.366-1.842s2.777.128 3.635 1.842 14.574 44.579 14.574 44.579 4.286 22.289 1.715 36.006l-.857 10.287h-12l.857-16.288-8.573-32.577z" class="cls-6" data-name="Path 17" transform="translate(-247.919 -238.77)"/>
        <path id="Rectangle_25" d="M0 0h13.08v13.08H0z" class="cls-3" data-name="Rectangle 25" transform="translate(202.244 160.562)"/>
        <path id="Rectangle_26" d="M0 0h105.297v1.308H0z" class="cls-3" data-name="Rectangle 26" transform="translate(238.215 166.448)"/>
        <path id="Rectangle_27" d="M0 0h13.08v13.08H0z" class="cls-3" data-name="Rectangle 27" transform="translate(202.244 182.144)"/>
        <path id="Rectangle_28" d="M0 0h105.297v1.308H0z" class="cls-3" data-name="Rectangle 28" transform="translate(238.215 188.031)"/>
        <path id="Rectangle_29" d="M0 0h13.08v13.08H0z" class="cls-3" data-name="Rectangle 29" transform="translate(202.244 203.727)"/>
        <path id="Rectangle_30" d="M0 0h105.297v1.308H0z" class="cls-3" data-name="Rectangle 30" transform="translate(238.215 209.613)"/>
    </g>
</svg>
