<svg xmlns="http://www.w3.org/2000/svg" width="47" height="35.25" viewBox="0 0 47 35.25">
    <defs>
        <style>
            .cls-1{fill:#ffc30e}
        </style>
    </defs>
    <path id="ad-solid" d="M14.46 83.094h3.393l-1.7-4.885zm17.853-1.469a2.2 2.2 0 1 0 2.2 2.2 2.206 2.206 0 0 0-2.2-2.2zM42.594 64H4.406A4.407 4.407 0 0 0 0 68.406v26.438a4.407 4.407 0 0 0 4.406 4.406h38.188A4.407 4.407 0 0 0 47 94.844V68.406A4.407 4.407 0 0 0 42.594 64zM23 90.438h-1.553a1.471 1.471 0 0 1-1.388-.987l-.676-1.951h-6.452l-.677 1.951a1.469 1.469 0 0 1-1.388.987H9.31a1.469 1.469 0 0 1-1.388-1.951l4.929-14.195a2.2 2.2 0 0 1 2.081-1.48h2.448a2.2 2.2 0 0 1 2.081 1.481l4.929 14.194A1.469 1.469 0 0 1 23 90.438zm15.919-1.469a1.468 1.468 0 0 1-1.469 1.469h-1.466a1.446 1.446 0 0 1-1.1-.521 6.626 6.626 0 1 1-.369-12.292v-3.344a1.468 1.468 0 0 1 1.469-1.469h1.469a1.468 1.468 0 0 1 1.469 1.469z" class="cls-1" transform="translate(0 -64)"/>
</svg>
