<svg xmlns="http://www.w3.org/2000/svg" width="47" height="41.778" viewBox="0 0 47 41.778">
    <defs>
        <style>
            .cls-1{fill:#ffc30e}
        </style>
    </defs>
    <path id="bullhorn-solid" d="M47 19.583a5.2 5.2 0 0 0-2.611-4.5V2.612A2.638 2.638 0 0 0 41.778 0a2.605 2.605 0 0 0-1.63.573l-6.939 5.551a19.8 19.8 0 0 1-12.32 4.321H5.222A5.222 5.222 0 0 0 0 15.667V23.5a5.222 5.222 0 0 0 5.222 5.222h2.75a19.829 19.829 0 0 0-.178 2.611 20.671 20.671 0 0 0 2.086 9.053 2.561 2.561 0 0 0 2.32 1.392h6.061a2.594 2.594 0 0 0 2.113-4.126 10.391 10.391 0 0 1-2.134-6.319 9.874 9.874 0 0 1 .36-2.611h2.291a19.8 19.8 0 0 1 12.32 4.321l6.938 5.551a2.61 2.61 0 0 0 4.241-2.038V24.082A5.2 5.2 0 0 0 47 19.583zm-7.833 11.54l-2.7-2.157A25.034 25.034 0 0 0 20.889 23.5v-7.833A25.034 25.034 0 0 0 36.47 10.2l2.7-2.157z" class="cls-1"/>
</svg>
