<svg xmlns="http://www.w3.org/2000/svg" width="47" height="37.6" viewBox="0 0 47 37.6">
    <defs>
        <style>
            .cls-1{fill:#ffc30e}
        </style>
    </defs>
    <path id="funnel-dollar-solid" d="M31.834 12.186l7.432-8.215A2.326 2.326 0 0 0 37.62 0H2.332A2.326 2.326 0 0 0 .687 3.971L14.1 18.8v11.45a2.939 2.939 0 0 0 1.175 2.35l5.874 4.406a2.924 2.924 0 0 0 4.349-1 14.067 14.067 0 0 1 6.334-23.824zm3.417 1.914A11.75 11.75 0 1 0 47 25.85 11.75 11.75 0 0 0 35.251 14.1zm1.175 17.616V32.9a.587.587 0 0 1-.588.588h-1.174a.587.587 0 0 1-.588-.588v-1.2a4.205 4.205 0 0 1-2.3-.834.588.588 0 0 1-.042-.892l.863-.823a.6.6 0 0 1 .744-.054 1.768 1.768 0 0 0 .941.273h2.064a.923.923 0 0 0 .867-.969.959.959 0 0 0-.644-.935l-3.3-.991a3.324 3.324 0 0 1-2.319-3.186 3.27 3.27 0 0 1 3.134-3.31V18.8a.587.587 0 0 1 .588-.588h1.175a.587.587 0 0 1 .588.588V20a4.2 4.2 0 0 1 2.3.834.588.588 0 0 1 .042.892l-.863.823a.6.6 0 0 1-.744.054 1.762 1.762 0 0 0-.941-.273h-2.07a.923.923 0 0 0-.867.969.959.959 0 0 0 .644.935l3.3.991a3.324 3.324 0 0 1 2.319 3.186 3.269 3.269 0 0 1-3.134 3.31z" class="cls-1" transform="translate(-.001)"/>
</svg>
