<svg xmlns="http://www.w3.org/2000/svg" width="47" height="36.556" viewBox="0 0 47 36.556">
    <defs>
        <style>
            .cls-1{fill:#ffc30e}
        </style>
    </defs>
    <path id="images-solid" d="M39.167 63.333v1.306a3.917 3.917 0 0 1-3.917 3.917H3.917A3.917 3.917 0 0 1 0 64.639V43.75a3.917 3.917 0 0 1 3.917-3.917h1.305v16.973a6.535 6.535 0 0 0 6.528 6.528zM47 56.806V35.917A3.917 3.917 0 0 0 43.083 32H11.75a3.917 3.917 0 0 0-3.917 3.917v20.889a3.917 3.917 0 0 0 3.917 3.917h31.333A3.917 3.917 0 0 0 47 56.806zM20.889 39.833a3.917 3.917 0 1 1-3.917-3.917 3.917 3.917 0 0 1 3.917 3.917zm-7.833 11.75l4.53-4.53a.979.979 0 0 1 1.385 0l3.224 3.224L33.252 39.22a.979.979 0 0 1 1.385 0l7.141 7.141V55.5H13.056z" class="cls-1" transform="translate(0 -32)"/>
</svg>
