<svg xmlns="http://www.w3.org/2000/svg" width="47" height="47" viewBox="0 0 47 47">
    <defs>
        <style>
            .cls-1{fill:#ffc30e}
        </style>
    </defs>
    <path id="search-dollar-solid" d="M46.361 40.635l-9.153-9.151a2.2 2.2 0 0 0-1.561-.643h-1.5a19.09 19.09 0 1 0-3.3 3.3v1.5a2.2 2.2 0 0 0 .643 1.561l9.153 9.151a2.194 2.194 0 0 0 3.112 0l2.6-2.6a2.212 2.212 0 0 0 .009-3.12zM19.1 32.309a13.217 13.217 0 1 1 13.214-13.217A13.21 13.21 0 0 1 19.1 32.309zm2.489-14l-4.132-1.239a1.2 1.2 0 0 1-.805-1.169 1.154 1.154 0 0 1 1.083-1.211h2.58a2.2 2.2 0 0 1 1.177.341.753.753 0 0 0 .93-.067l1.078-1.031a.735.735 0 0 0-.052-1.114 5.256 5.256 0 0 0-2.88-1.042v-1.5a.734.734 0 0 0-.734-.734h-1.473a.734.734 0 0 0-.734.734v1.48a4.088 4.088 0 0 0-3.918 4.143 4.154 4.154 0 0 0 2.9 3.983l4.132 1.239a1.2 1.2 0 0 1 .805 1.169 1.154 1.154 0 0 1-1.085 1.209h-2.579a2.2 2.2 0 0 1-1.177-.341.753.753 0 0 0-.93.067L14.7 24.254a.735.735 0 0 0 .052 1.114 5.256 5.256 0 0 0 2.88 1.042v1.5a.734.734 0 0 0 .734.734h1.469a.734.734 0 0 0 .734-.734v-1.48a4.087 4.087 0 0 0 3.918-4.137 4.154 4.154 0 0 0-2.9-3.983z" class="cls-1"/>
</svg>
