<svg xmlns="http://www.w3.org/2000/svg" width="47" height="41.125" viewBox="0 0 47 41.125">
    <defs>
        <style>
            .cls-1{fill:#ffc30e}
        </style>
    </defs>
    <path id="camera-solid" d="M47 42.281v26.438a4.407 4.407 0 0 1-4.406 4.406H4.406A4.407 4.407 0 0 1 0 68.719V42.281a4.407 4.407 0 0 1 4.406-4.406h8.078l1.129-3.02A4.4 4.4 0 0 1 17.735 32h11.521a4.4 4.4 0 0 1 4.122 2.855l1.138 3.02h8.078A4.407 4.407 0 0 1 47 42.281zM34.516 55.5A11.016 11.016 0 1 0 23.5 66.516 11.024 11.024 0 0 0 34.516 55.5zm-2.937 0a8.078 8.078 0 1 1-8.079-8.078 8.09 8.09 0 0 1 8.078 8.078z" class="cls-1" transform="translate(0 -32)"/>
</svg>
