<svg xmlns="http://www.w3.org/2000/svg" width="47" height="47" viewBox="0 0 47 47">
    <defs>
        <style>
            .cls-1{fill:#0085c6}
        </style>
    </defs>
    <path id="phone-solid" d="M45.282 2.248L35.736.045a2.217 2.217 0 0 0-2.524 1.276L28.8 11.6a2.2 2.2 0 0 0 .633 2.57L35 18.726a34.02 34.02 0 0 1-16.265 16.266l-4.553-5.563a2.2 2.2 0 0 0-2.57-.633L1.331 33.2a2.229 2.229 0 0 0-1.285 2.535l2.2 9.547A2.2 2.2 0 0 0 4.4 46.989 42.588 42.588 0 0 0 46.99 4.4a2.2 2.2 0 0 0-1.708-2.152z" class="cls-1" transform="translate(.01 .011)"/>
</svg>
