<svg xmlns="http://www.w3.org/2000/svg" width="47" height="36.556" viewBox="0 0 47 36.556">
    <defs>
        <style>
            .cls-1{fill:#0085c6}
        </style>
    </defs>
    <path id="address-card-solid" d="M43.083 32H3.917A3.918 3.918 0 0 0 0 35.917v28.722a3.918 3.918 0 0 0 3.917 3.917h39.166A3.918 3.918 0 0 0 47 64.639V35.917A3.918 3.918 0 0 0 43.083 32zm-28.722 7.833a5.222 5.222 0 1 1-5.222 5.222 5.227 5.227 0 0 1 5.222-5.222zM23.5 59.156a1.711 1.711 0 0 1-1.828 1.567H7.05a1.711 1.711 0 0 1-1.828-1.567v-1.567c0-2.595 2.456-4.7 5.483-4.7h.408a8.4 8.4 0 0 0 6.5 0h.408c3.027 0 5.483 2.105 5.483 4.7zm18.278-4.308a.655.655 0 0 1-.653.653h-11.75a.655.655 0 0 1-.653-.653v-1.306a.655.655 0 0 1 .653-.653h11.75a.655.655 0 0 1 .653.653zm0-5.222a.655.655 0 0 1-.653.653h-11.75a.655.655 0 0 1-.653-.653v-1.307a.655.655 0 0 1 .653-.653h11.75a.655.655 0 0 1 .653.653zm0-5.222a.655.655 0 0 1-.653.653h-11.75a.655.655 0 0 1-.653-.653V43.1a.655.655 0 0 1 .653-.653h11.75a.655.655 0 0 1 .653.653z" class="cls-1" transform="translate(0 -32)"/>
</svg>
