<svg xmlns="http://www.w3.org/2000/svg" width="47" height="35.25" viewBox="0 0 47 35.25">
    <defs>
        <style>
            .cls-1{fill:#0085c6}
        </style>
    </defs>
    <path id="envelope-solid" d="M46.11 75.64a.553.553 0 0 1 .89.431v18.773a4.407 4.407 0 0 1-4.406 4.406H4.406A4.407 4.407 0 0 1 0 94.844V76.08a.549.549 0 0 1 .89-.431c2.056 1.6 4.783 3.626 14.146 10.428 1.937 1.414 5.2 4.388 8.464 4.37 3.277.028 6.609-3.011 8.473-4.37 9.363-6.802 12.08-8.84 14.137-10.437zM23.5 87.5c2.13.037 5.2-2.68 6.738-3.8 12.181-8.84 13.109-9.611 15.918-11.814A2.2 2.2 0 0 0 47 70.15v-1.744A4.407 4.407 0 0 0 42.594 64H4.406A4.407 4.407 0 0 0 0 68.406v1.744a2.21 2.21 0 0 0 .845 1.735C3.654 74.079 4.581 74.86 16.762 83.7c1.538 1.12 4.608 3.837 6.738 3.8z" class="cls-1" transform="translate(0 -64)"/>
</svg>
